:version 1.10
:name ASF
:units
  mass 1
  length 1
  angle deg
:documentation
  ASF file generated by Kaydara
:root
  axis xyz
  order  tx ty tz rx ry rz
  position 0 0 0
  orientation 0 0 0
:bonedata
  begin
    id 1
    name SpineDummy
    direction 0.999998 -0.00179978 1.38929e-006
    length 3.60008
    axis 0 0 0 xyz
  end
  begin
    id 2
    name Spine
    direction 0.964365 0.262802 0.0305839
    length 8.13928
    axis 1.33928 -1.75354 15.2838 xyz
    dof rx ry rz
  end
  begin
    id 3
    name Spine1
    direction 0.811168 0.572065 0.12144
    length 7.14954
    axis 2.2224 -6.9761 35.2157 xyz
    dof rx ry rz
  end
  begin
    id 4
    name Neck
    direction 0 0 0
    length 0
    axis 2.2224 -6.9761 35.2157 xyz
    dof rx ry rz
  end
  begin
    id 5
    name HeadDummy
    direction 0.810939 0.572387 0.121455
    length 3.55534
    axis 2.2224 -6.9761 35.2157 xyz
  end
  begin
    id 6
    name Head
    direction 0.998226 -0.000232542 0.0595419
    length 7.35666
    axis -3.03688 -3.41352 -0.0133467 xyz
    dof rx ry rz
  end
  begin
    id 7
    name R_ClavicleDummy
    direction 0.531669 -0.194489 -0.824319
    length 2.49392
    axis 2.2224 -6.9761 35.2157 xyz
  end
  begin
    id 8
    name R_Clavicle
    direction -0.155119 0.0480802 -0.986725
    length 4.485
    axis -54.2764 80.6538 162.779 xyz
    dof rx ry rz
  end
  begin
    id 9
    name R_UpperArm
    direction -0.955567 0.200068 -0.216484
    length 10.1122
    axis -72.9943 12.5026 168.175 xyz
    dof rx ry rz
  end
  begin
    id 10
    name R_Forearm
    direction -0.61433 0.385743 0.688332
    length 9.39148
    axis -117.015 -43.4982 147.875 xyz
    dof rx ry rz
  end
  begin
    id 11
    name R_Hand
    direction -0.699429 0.0170333 0.714499
    length 3.66324
    axis -45.0303 -36.7097 175.478 xyz
    dof rx ry rz
  end
  begin
    id 12
    name L_ClavicleDummy
    direction 0.40287 -0.36502 0.839319
    length 2.49392
    axis 2.2224 -6.9761 35.2157 xyz
  end
  begin
    id 13
    name L_Clavicle
    direction -0.231271 -0.0726419 0.970174
    length 4.485
    axis 18.4357 -75.9711 -162.563 xyz
    dof rx ry rz
  end
  begin
    id 14
    name L_UpperArm
    direction -0.917494 0.144359 0.370629
    length 10.1122
    axis 56.0417 -21.7544 171.058 xyz
    dof rx ry rz
  end
  begin
    id 15
    name L_Forearm
    direction -0.496786 0.615074 -0.612281
    length 9.39148
    axis 89.8094 37.7546 128.927 xyz
    dof rx ry rz
  end
  begin
    id 16
    name L_Hand
    direction -0.409932 0.64962 -0.640274
    length 3.66324
    axis -0.424369 32.133 128.52 xyz
    dof rx ry rz
  end
  begin
    id 17
    name L_ThighDummy
    direction -1.84081e-006 1.87549e-006 1
    length 3.13049
    axis 0 0 0 xyz
  end
  begin
    id 18
    name L_Thigh
    direction -0.947739 0.307978 0.083308
    length 17.9961
    axis 173.219 -4.77873 161.998 xyz
    dof rx ry rz
  end
  begin
    id 19
    name L_Calf
    direction -0.728814 -0.684427 0.0197583
    length 13.3367
    axis 167.331 -1.13214 -136.799 xyz
    dof rx ry rz
  end
  begin
    id 20
    name L_Foot
    direction -0.9028 0.418719 0.0981191
    length 5.8674
    axis 163.436 11.5135 -155.37 xyz
    dof rx ry rz
  end
  begin
    id 21
    name L_Toe0
    direction -0.35341 0.886259 0.299411
    length 4.75286
    axis 169.316 -17.4222 111.74 xyz
    dof rx ry rz
  end
  begin
    id 22
    name R_ThighDummy
    direction 9.32778e-007 -8.82053e-007 -1
    length 3.13049
    axis 0 0 0 xyz
  end
  begin
    id 23
    name R_Thigh
    direction -0.925064 0.37528 -0.0585023
    length 17.9961
    axis -178.698 3.35385 157.919 xyz
    dof rx ry rz
  end
  begin
    id 24
    name R_Calf
    direction -0.68969 -0.718776 -0.0876886
    length 13.3367
    axis -160.504 5.03065 -133.817 xyz
    dof rx ry rz
  end
  begin
    id 25
    name R_Foot
    direction -0.857405 0.418858 -0.299022
    length 5.8674
    axis -161.328 4.38911 -154.413 xyz
    dof rx ry rz
  end
  begin
    id 26
    name R_Toe0
    direction -0.100745 0.952789 -0.286433
    length 4.75286
    axis 171.683 16.6445 96.0359 xyz
    dof rx ry rz
  end
:hierarchy
  begin
    root SpineDummy L_ThighDummy R_ThighDummy
    SpineDummy Spine
    Spine Spine1
    Spine1 Neck
    Neck HeadDummy R_ClavicleDummy L_ClavicleDummy
    HeadDummy Head
    R_ClavicleDummy R_Clavicle
    R_Clavicle R_UpperArm
    R_UpperArm R_Forearm
    R_Forearm R_Hand
    L_ClavicleDummy L_Clavicle
    L_Clavicle L_UpperArm
    L_UpperArm L_Forearm
    L_Forearm L_Hand
    L_ThighDummy L_Thigh
    L_Thigh L_Calf
    L_Calf L_Foot
    L_Foot L_Toe0
    R_ThighDummy R_Thigh
    R_Thigh R_Calf
    R_Calf R_Foot
    R_Foot R_Toe0
  end

:SAMPLES-PER-SECOND 30
:FULLY-SPECIFIED
:DEGREES
212
root  0.087615 33.3147 5.51169 -80.8531 -9.751 91.8316
Spine  3.32103 12.1665 -11.9732
Spine1  3.29627 -0.910243 2.07003
Neck  3.97569e-016 0 -2.38542e-015
Head  -8.83957 -5.88687 23.6385
R_Clavicle  0.378969 -6.41982 1.84496
R_UpperArm  -1.29142 10.4774 -3.35316
R_Forearm  10.2851 -22.824 19.1222
R_Hand  0.0250677 10.3156 -12.344
L_Clavicle  -0.265146 13.1399 -4.05402
L_UpperArm  -8.29034 17.7537 40.1487
L_Forearm  -6.10498 19.8696 24.6608
L_Hand  -0.193113 2.55033 -2.5988
L_Thigh  -11.224 6.32226 2.82739
L_Calf  -4.90193 -2.48301 18.0694
L_Foot  4.28201 16.17 1.0279
L_Toe0  0.505156 0.0317705 -6.13612
R_Thigh  2.76543 3.86248 -28.8055
R_Calf  -1.86709 10.4733 35.5293
R_Foot  0.293144 0.204224 -2.09733
R_Toe0  -0.766098 -0.045282 -7.21524
213
root  -0.0288645 33.2171 4.39641 -79.0328 -8.96483 91.2142
Spine  4.48019 12.8782 -12.6709
Spine1  4.24303 -3.77017 2.26403
Neck  3.97569e-016 0 -2.38542e-015
Head  -12.6175 -5.34097 23.7049
R_Clavicle  0.310678 -6.62864 1.35293
R_UpperArm  6.54923 12.2231 -2.32087
R_Forearm  4.71774 -32.8129 20.2072
R_Hand  -0.0837081 10.5838 -13.1852
L_Clavicle  -0.228234 12.3709 -3.64898
L_UpperArm  -9.46372 16.4684 38.7182
L_Forearm  -5.99191 19.5761 24.2414
L_Hand  -0.180412 2.45268 -2.45099
L_Thigh  -7.81641 6.14688 2.18442
L_Calf  -3.98671 -4.58919 33.3051
L_Foot  4.66967 17.6381 1.11028
L_Toe0  0.505156 0.0310069 -6.13613
R_Thigh  2.68416 3.58321 -31.5129
R_Calf  -0.755089 11.171 37.9371
R_Foot  0.203946 0.433286 -0.69641
R_Toe0  -0.821296 -0.0499972 -7.63725
214
root  -0.214001 32.7355 3.32641 -77.5272 -8.46088 90.9077
Spine  5.39782 14.0142 -12.2778
Spine1  4.88662 -6.46831 2.24453
Neck  3.97569e-016 0 -2.38542e-015
Head  -14.8701 -5.53036 23.2163
R_Clavicle  0.275623 -6.97968 1.07916
R_UpperArm  21.9916 14.0611 -1.71021
R_Forearm  -10.2177 -44.3452 22.5177
R_Hand  -0.0101846 10.5753 -12.7063
L_Clavicle  -0.233394 12.2448 -3.2686
L_UpperArm  -10.2054 14.5604 36.3776
L_Forearm  -6.37372 19.3505 23.9213
L_Hand  -0.211388 2.20912 -2.99233
L_Thigh  -1.03289 6.18458 2.15181
L_Calf  -1.95227 -6.07436 42.602
L_Foot  3.69967 13.8377 0.989934
L_Toe0  0.505156 0.030293 -6.13613
R_Thigh  2.41414 3.60872 -33.6145
R_Calf  0.458548 11.1955 37.8773
R_Foot  0.0755405 1.5261 3.64035
R_Toe0  -0.968197 -0.0866481 -9.53805
215
root  -0.575314 32.0999 2.29524 -74.9713 -8.59123 89.805
Spine  5.51162 14.32 -10.6462
Spine1  4.65853 -8.28809 2.66093
Neck  3.97569e-016 0 -2.38542e-015
Head  -15.8645 -6.30309 21.4422
R_Clavicle  0.272225 -7.66262 1.00415
R_UpperArm  27.6721 15.5787 -0.722999
R_Forearm  -19.8037 -49.7893 28.3951
R_Hand  0.159066 10.1648 -11.361
L_Clavicle  -0.311547 13.2065 -2.41752
L_UpperArm  -10.2474 11.4197 31.9177
L_Forearm  -6.66105 19.4068 24.0027
L_Hand  -0.276425 1.75996 -4.19308
L_Thigh  0.955245 4.59281 3.59343
L_Calf  3.86757 -4.52332 41.6063
L_Foot  1.54611 8.51602 -1.95948
L_Toe0  0.505156 0.0296829 -6.13614
R_Thigh  2.7242 3.07117 -36.2889
R_Calf  1.98109 10.9649 36.9218
R_Foot  0.105208 3.08133 8.95895
R_Toe0  -0.908797 -0.16414 -12.0748
216
root  -1.1569 31.4497 1.30636 -71.1254 -8.94644 87.7816
Spine  5.00845 14.2892 -8.29339
Spine1  3.672 -9.88629 4.07678
Neck  3.97569e-016 0 -2.38542e-015
Head  -17.4113 -6.6009 18.1499
R_Clavicle  0.279213 -9.50998 0.90351
R_UpperArm  30.1073 15.9802 2.77878
R_Forearm  -20.0726 -50.7482 31.4728
R_Hand  0.0836275 10.2448 -11.9379
L_Clavicle  -0.408788 14.9255 -1.28112
L_UpperArm  -8.94266 7.25876 24.2811
L_Forearm  -5.94891 20.0403 24.9121
L_Hand  -0.340422 0.915037 -5.89651
L_Thigh  3.54027 0.937964 6.42224
L_Calf  5.40377 -3.59988 32.4196
L_Foot  0.231311 8.85968 -6.97685
L_Toe0  0.505156 0.0292309 -6.13614
R_Thigh  3.66909 2.17398 -38.9919
R_Calf  3.7385 10.3725 34.6136
R_Foot  0.612699 5.21938 13.3779
R_Toe0  -0.781357 -0.189598 -12.9274
217
root  -1.87568 30.8673 0.373112 -67.9196 -8.72946 85.5882
Spine  4.7923 13.9375 -5.92215
Spine1  2.85253 -11.1802 5.98047
Neck  3.97569e-016 0 -2.38542e-015
Head  -20.0013 -6.14367 14.448
R_Clavicle  0.280386 -12.148 0.605992
R_UpperArm  32.7755 14.4789 8.81796
R_Forearm  -12.1122 -49.7871 31.4818
R_Hand  -0.533371 10.4483 -16.0706
L_Clavicle  -0.467792 16.4013 -1.15315
L_UpperArm  -6.50622 4.33135 15.4448
L_Forearm  -4.54793 20.3482 25.3596
L_Hand  -0.382508 0.256165 -7.44896
L_Thigh  4.35423 -2.67491 7.87522
L_Calf  5.33084 -3.39199 25.0836
L_Foot  -0.281145 11.0936 -10.2299
L_Toe0  0.505156 0.028991 -6.13615
R_Thigh  5.05616 0.735434 -38.9055
R_Calf  3.8254 8.41614 27.2973
R_Foot  2.13063 8.91306 14.138
R_Toe0  -0.908926 0.0283015 -6.96639
218
root  -2.58684 30.4324 -0.516724 -67.0746 -7.72648 83.2529
Spine  4.91699 10.8718 -3.77128
Spine1  2.82267 -10.4218 7.31059
Neck  3.97569e-016 0 -2.38542e-015
Head  -21.2084 -5.47528 11.6143
R_Clavicle  0.262929 -14.0145 0.0298065
R_UpperArm  34.7608 11.1895 14.6224
R_Forearm  -2.73894 -49.1289 30.7228
R_Hand  -1.32419 8.98437 -21.3624
L_Clavicle  -0.483605 16.5937 -2.39777
L_UpperArm  -4.78106 4.3431 8.31738
L_Forearm  -3.35207 19.036 23.4799
L_Hand  -0.429262 0.560951 -7.8977
L_Thigh  1.57975 -5.36331 8.77623
L_Calf  6.63465 -2.57192 19.0688
L_Foot  0.671971 12.2122 -7.58801
L_Toe0  0.505156 0.0290175 -6.13615
R_Thigh  5.8868 -2.41107 -34.6284
R_Calf  1.66068 4.56166 14.311
R_Foot  3.46467 11.8134 7.79291
R_Toe0  1.27781 -0.606061 7.13634
219
root  -3.24014 30.0604 -1.41891 -68.2644 -6.87923 80.8721
Spine  4.57257 4.81427 -2.19904
Spine1  3.07877 -6.83326 8.1792
Neck  3.97569e-016 0 -2.38542e-015
Head  -18.9177 -4.76549 9.55625
R_Clavicle  0.232604 -14.7476 -0.614546
R_UpperArm  35.6923 7.3273 18.4774
R_Forearm  2.26246 -48.7316 29.9716
R_Hand  -1.68252 7.06082 -24.4247
L_Clavicle  -0.440342 15.7998 -3.6017
L_UpperArm  -3.96826 5.50433 2.77383
L_Forearm  -2.53291 16.0729 19.4279
L_Hand  -0.43651 1.20483 -7.25616
L_Thigh  -2.23504 -6.91351 8.96212
L_Calf  7.61998 -1.83147 13.6263
L_Foot  2.19238 12.5316 -2.80306
L_Toe0  0.505156 0.0293646 -6.13614
R_Thigh  5.27457 -6.51285 -28.0074
R_Calf  -0.413278 -0.049509 -0.183737
R_Foot  2.91823 9.52612 -3.88493
R_Toe0  8.2173 -3.67728 14.7198
